# xmcd CD database file
#
# Track frame offsets:
#	182
#	29655
#	53870
#	77125
#	91477
#	115502
#	143767
#	167897
#	195645
#
# Disc length: 2903 seconds
#
# Revision: 0
# Processed by: cddbd v1.4PL0 Copyright (c) Steve Scherf et al.
# Submitted via: CDex 1.50
#
DISCID=750b5509
DTITLE=Varios - Pasaporte Afrolatino
DYEAR=1998
DGENRE=Salsa
TTITLE0=Eddie McLean y Merensalsa - Mi Guaguancó
TTITLE1=Eddie McLean y Merensalsa - El Metro
TTITLE2=Eddie McLean y Merensalsa - Contigo no vuelvo más
TTITLE3=Eddie McLean y Merensalsa - Pasaporte Afrolatino
TTITLE4=Tradición Cubana - Hasta siempre
TTITLE5=Tradición Cubana - Olvido
TTITLE6=Tradición Cubana - Coco molido
TTITLE7=Marfil - Ochosí
TTITLE8=Marfil - Leyenda, changó y ochún
EXTD=YEAR: 1998
EXTT0=
EXTT1=
EXTT2=
EXTT3=
EXTT4=
EXTT5=
EXTT6=
EXTT7=
EXTT8=
PLAYORDER=
